<?xml version="1.0" encoding="UTF-8" standalone="no"?>
<!-- Created with Inkscape (http://www.inkscape.org/) -->

<svg
   xmlns:dc="http://purl.org/dc/elements/1.1/"
   xmlns:cc="http://creativecommons.org/ns#"
   xmlns:rdf="http://www.w3.org/1999/02/22-rdf-syntax-ns#"
   xmlns:svg="http://www.w3.org/2000/svg"
   xmlns="http://www.w3.org/2000/svg"
   xmlns:sodipodi="http://sodipodi.sourceforge.net/DTD/sodipodi-0.dtd"
   xmlns:inkscape="http://www.inkscape.org/namespaces/inkscape"
   width="46.39365mm"
   height="46.39365mm"
   viewBox="0 0 164.38695 164.38695"
   id="svg2"
   version="1.1"
   inkscape:version="0.91 r13725"
   sodipodi:docname="icone-envoieBilan.svg"
   inkscape:export-filename="/run/user/1000/gvfs/sftp:host=allais.eu,port=33121,user=raf/home/raf/Internet/skillcenter/develop/sources/images/icone-envoieBilan.png"
   inkscape:export-xdpi="17.52"
   inkscape:export-ydpi="17.52">
  <defs
     id="defs4" />
  <sodipodi:namedview
     id="base"
     pagecolor="#ffffff"
     bordercolor="#666666"
     borderopacity="1.0"
     inkscape:pageopacity="0.0"
     inkscape:pageshadow="2"
     inkscape:zoom="1.3200561"
     inkscape:cx="-39.214519"
     inkscape:cy="78.236867"
     inkscape:document-units="px"
     inkscape:current-layer="layer1"
     showgrid="false"
     inkscape:snap-intersection-paths="true"
     inkscape:object-paths="true"
     inkscape:object-nodes="true"
     inkscape:snap-smooth-nodes="true"
     inkscape:snap-global="true"
     fit-margin-top="0"
     fit-margin-left="0"
     fit-margin-right="0"
     fit-margin-bottom="0"
     inkscape:window-width="1680"
     inkscape:window-height="996"
     inkscape:window-x="1920"
     inkscape:window-y="125"
     inkscape:window-maximized="1" />
  <metadata
     id="metadata7">
    <rdf:RDF>
      <cc:Work
         rdf:about="">
        <dc:format>image/svg+xml</dc:format>
        <dc:type
           rdf:resource="http://purl.org/dc/dcmitype/StillImage" />
        <dc:title />
      </cc:Work>
    </rdf:RDF>
  </metadata>
  <g
     inkscape:label="Calque 1"
     inkscape:groupmode="layer"
     id="layer1"
     transform="translate(-158.28572,-405.37292)">
    <g
       transform="matrix(2.6816751,0,0,2.6816751,164.20266,411.70854)"
       id="g3">
      <g
         id="g5">
        <polygon
           style="fill:#c5bbad;fill-opacity:1"
           points="56,5 0,5 0,44 28,44 56,44 "
           id="polygon7" />
        <path
           inkscape:connector-curvature="0"
           style="fill:#ddd5c6;fill-opacity:1"
           d="m 30.965,27.107 c -1.637,1.462 -4.292,1.462 -5.93,0 L 22.948,25.264 C 16.419,31.091 0,44 0,44 L 21.607,44 34.394,44 56,44 C 56,44 39.581,31.091 33.052,25.264 l -2.087,1.843 z"
           id="path9" />
        <path
           inkscape:connector-curvature="0"
           style="fill:#efebde"
           d="m 0,5 25.035,22.107 c 1.637,1.462 4.292,1.462 5.93,0 L 56,5 0,5 Z"
           id="path11" />
      </g>
      <g
         id="g13">
        <circle
           style="fill:#26b999"
           cx="46"
           cy="41"
           r="12"
           id="circle15" />
        <path
           inkscape:connector-curvature="0"
           style="fill:#ffffff"
           d="m 52.571,35.179 c -0.455,-0.316 -1.077,-0.204 -1.392,0.25 l -5.596,8.04 -3.949,-3.242 c -0.426,-0.351 -1.057,-0.288 -1.407,0.139 -0.351,0.427 -0.289,1.057 0.139,1.407 l 4.786,3.929 c 0.18,0.147 0.404,0.227 0.634,0.227 0.045,0 0.091,-0.003 0.137,-0.009 0.276,-0.039 0.524,-0.19 0.684,-0.419 l 6.214,-8.929 c 0.315,-0.454 0.203,-1.077 -0.25,-1.393 z"
           id="path17" />
      </g>
    </g>
  </g>
</svg>
