<?xml version="1.0" encoding="UTF-8" standalone="no"?>
<!-- Generator: Adobe Illustrator 18.1.1, SVG Export Plug-In . SVG Version: 6.00 Build 0)  -->

<svg
   xmlns:dc="http://purl.org/dc/elements/1.1/"
   xmlns:cc="http://creativecommons.org/ns#"
   xmlns:rdf="http://www.w3.org/1999/02/22-rdf-syntax-ns#"
   xmlns:svg="http://www.w3.org/2000/svg"
   xmlns="http://www.w3.org/2000/svg"
   xmlns:sodipodi="http://sodipodi.sourceforge.net/DTD/sodipodi-0.dtd"
   xmlns:inkscape="http://www.inkscape.org/namespaces/inkscape"
   version="1.1"
   id="Capa_1"
   x="0px"
   y="0px"
   viewBox="0 0 342.41177 342.41177"
   xml:space="preserve"
   width="653"
   height="653"
   inkscape:version="0.48.5 r10040"
   sodipodi:docname="poubelle.svg"
   inkscape:export-filename="U:\projets\competences\sources\images\poubelle.png"
   inkscape:export-xdpi="3.3099999"
   inkscape:export-ydpi="3.3099999"><metadata
   id="metadata40"><rdf:RDF><cc:Work
       rdf:about=""><dc:format>image/svg+xml</dc:format><dc:type
         rdf:resource="http://purl.org/dc/dcmitype/StillImage" /><dc:title></dc:title></cc:Work></rdf:RDF></metadata><defs
   id="defs38">
	
</defs><sodipodi:namedview
   pagecolor="#ffffff"
   bordercolor="#666666"
   borderopacity="1"
   objecttolerance="10"
   gridtolerance="10"
   guidetolerance="10"
   inkscape:pageopacity="0"
   inkscape:pageshadow="2"
   inkscape:window-width="1280"
   inkscape:window-height="962"
   id="namedview36"
   showgrid="false"
   fit-margin-top="0"
   fit-margin-left="0"
   fit-margin-right="0"
   fit-margin-bottom="0"
   inkscape:zoom="0.4609375"
   inkscape:cx="226.70339"
   inkscape:cy="380.73729"
   inkscape:window-x="-8"
   inkscape:window-y="-8"
   inkscape:window-maximized="1"
   inkscape:current-layer="Capa_1" />
<path
   style="fill:#ffffff;fill-opacity:0.78431374;stroke:none"
   d="M 171.20589,0 C 76.649029,0 0,76.649029 0,171.20589 c 0,94.55686 76.649029,171.20589 171.20589,171.20589 94.55686,0 171.20589,-76.64903 171.20589,-171.20589 C 342.41178,76.649029 265.76275,0 171.20589,0 z m -26.84105,36.967887 53.68209,0 c 13.507,0 17.91042,4.31703 17.91042,17.89403 l 0,17.910417 39.3767,0 c 7.914,0 14.30539,6.013909 14.30539,13.436909 0,7.424001 -6.39139,13.43691 -14.30539,13.43691 l -168.256324,0 c -7.914,0 -14.305392,-6.012909 -14.305392,-13.43691 0,-7.423 6.391392,-13.436909 14.305392,-13.436909 l 39.376704,0 0,-17.910417 c 0,-11.898 5.52141,-17.89403 17.91041,-17.89403 z m 0,17.89403 0,17.910417 53.68209,0 0,-17.910417 -53.68209,0 z m -62.645491,53.698473 178.973081,0 -18.36924,178.66174 c 0,0 -3.99671,18.22176 -24.57971,18.22176 l -93.07518,0 c -20.584,0 -24.57971,-18.22176 -24.57971,-18.22176 L 81.719349,108.56039 z m 44.735081,17.89404 c -4.942,0 -8.94702,4.0204 -8.94702,8.9634 l 8.94702,134.22161 c 0,4.942 4.00501,8.9634 8.94701,8.9634 4.943,0 8.9634,-4.0204 8.9634,-8.9634 l -8.9634,-134.238 c 0,-4.943 -4.00402,-8.94701 -8.94701,-8.94701 z m 44.75146,0 c -4.942,0 -8.94702,4.0204 -8.94702,8.9634 l 0,134.238 c 0,4.942 4.00402,8.94701 8.94702,8.94701 4.943,0 8.94701,-4.00401 8.94701,-8.94701 l 0,-134.238 c 0,-4.943 -4.00401,-8.9634 -8.94701,-8.9634 z m 44.75146,0 c -4.943,0 -8.94702,4.0204 -8.94702,8.9634 l -8.9634,134.238 c 0,4.942 4.02141,8.94701 8.9634,8.94701 4.942,0 8.94702,-4.00401 8.94702,-8.94701 l 8.94702,-134.238 c 0,-4.943 -4.00402,-8.9634 -8.94702,-8.9634 z"
   id="path3017"
   inkscape:connector-curvature="0" />
<g
   id="g6"
   transform="translate(36.967887,36.967887)">
</g>
<g
   id="g8"
   transform="translate(36.967887,36.967887)">
</g>
<g
   id="g10"
   transform="translate(36.967887,36.967887)">
</g>
<g
   id="g12"
   transform="translate(36.967887,36.967887)">
</g>
<g
   id="g14"
   transform="translate(36.967887,36.967887)">
</g>
<g
   id="g16"
   transform="translate(36.967887,36.967887)">
</g>
<g
   id="g18"
   transform="translate(36.967887,36.967887)">
</g>
<g
   id="g20"
   transform="translate(36.967887,36.967887)">
</g>
<g
   id="g22"
   transform="translate(36.967887,36.967887)">
</g>
<g
   id="g24"
   transform="translate(36.967887,36.967887)">
</g>
<g
   id="g26"
   transform="translate(36.967887,36.967887)">
</g>
<g
   id="g28"
   transform="translate(36.967887,36.967887)">
</g>
<g
   id="g30"
   transform="translate(36.967887,36.967887)">
</g>
<g
   id="g32"
   transform="translate(36.967887,36.967887)">
</g>
<g
   id="g34"
   transform="translate(36.967887,36.967887)">
</g>
</svg>